<svg width="1042" height="692" viewBox="0 0 1042 692" fill="none" xmlns="http://www.w3.org/2000/svg">
<path d="M579.638 500.165C550.637 548.215 507.868 586.481 456.857 610.019C405.846 633.558 348.937 641.288 293.48 632.21C238.023 623.133 186.567 597.666 145.758 559.098C104.949 520.53 76.6625 470.634 64.5519 415.855C52.4414 361.076 57.0633 303.93 77.8207 251.8C98.5781 199.669 134.517 154.949 180.996 123.416C227.475 91.8834 282.357 74.9861 338.555 74.9073C394.752 74.8284 449.682 91.5716 496.249 122.974L447.599 194.861C415.434 173.171 377.493 161.606 338.677 161.661C299.86 161.715 261.952 173.386 229.848 195.167C197.744 216.947 172.92 247.836 158.583 283.843C144.245 319.851 141.053 359.323 149.418 397.16C157.783 434.997 177.321 469.461 205.509 496.1C233.696 522.74 269.238 540.33 307.543 546.6C345.848 552.87 385.156 547.531 420.39 531.273C455.625 515.014 485.166 488.583 505.198 455.394L579.638 500.165Z" fill="black"/>
<path d="M551.972 485.889C514.859 540.528 457.56 578.187 392.681 590.58C327.803 602.973 260.658 589.085 206.018 551.972C151.379 514.859 113.72 457.56 101.327 392.682C88.9343 327.803 102.822 260.658 139.935 206.018L345.953 345.954L551.972 485.889Z" fill="black"/>
<path d="M620 602V108H724.774V311.823L1042 108V602H937.468V397.936H724.774V602H620Z" fill="black"/>
</svg>
