<svg width="1055" height="776" viewBox="0 0 1055 776" fill="none" xmlns="http://www.w3.org/2000/svg">
<path d="M906.968 642.16C906.983 642.014 906.983 641.866 906.968 641.72L855.517 377.498C855.517 377.31 855.517 377.121 855.517 376.933C847.575 333.551 824.68 294.325 790.814 266.074C756.948 237.823 714.253 222.333 670.15 222.298H393.56C349.334 222.281 306.518 237.859 272.643 266.291C238.767 294.724 216.002 334.19 208.35 377.749L157.151 641.72C157.135 641.866 157.135 642.014 157.151 642.16C152.983 665.823 156.466 690.199 167.095 711.749C177.723 733.298 194.944 750.899 216.256 761.996C237.567 773.093 261.862 777.108 285.611 773.459C309.36 769.809 331.328 758.686 348.325 741.702L349.423 740.541L474.016 598.996H590.165L714.82 740.541C715.166 740.949 715.542 741.325 715.919 741.702C737.103 762.84 765.791 774.735 795.716 774.789C812.212 774.778 828.505 771.156 843.452 764.178C858.398 757.2 871.636 747.034 882.236 734.394C892.835 721.754 900.539 706.948 904.806 691.014C909.073 675.08 909.8 658.405 906.936 642.16H906.968ZM470.64 380.418L425.994 324.611L338.478 375.768C338.478 382.428 360.945 455.699 356.235 460.409C351.526 465.118 381.349 509.705 382.279 503.194C375.618 503.194 411.171 486.511 406.462 481.801C401.752 477.092 381.349 480.091 381.349 473.43V448.317L323.681 369.257C317.021 369.257 319.031 447.387 338.478 440.962C333.768 436.252 354.375 438.235 354.375 431.575C354.375 424.915 333.768 410.156 338.478 405.446C343.187 400.737 349.575 398.091 356.235 398.091H381.349V372.978C381.349 366.317 383.994 359.929 388.704 355.22C393.414 350.51 399.801 347.864 406.462 347.864C413.122 347.864 419.51 350.51 424.219 355.22C428.929 359.929 431.575 366.317 431.575 372.978L381.349 448.317L456.688 398.091C463.349 398.091 469.736 400.737 474.446 405.446C479.156 410.156 481.801 416.544 481.801 423.204C481.801 429.864 502.323 386.87 497.614 391.58C492.904 396.29 477.301 380.418 470.64 380.418ZM582.254 423.204C582.254 416.544 584.9 410.156 589.61 405.446C594.319 400.737 600.707 398.091 607.367 398.091H682.707C689.367 398.091 695.755 400.737 700.465 405.446C705.174 410.156 707.82 416.544 707.82 423.204C698.519 426.924 666.895 432.505 700.465 440.962C695.755 445.671 733.083 371.117 726.423 371.117L632.481 347.864C625.82 347.864 594.319 375.827 589.61 371.117C584.9 366.408 582.254 429.864 582.254 423.204ZM830.596 678.987C825.892 685.759 850.403 615.954 843.452 620.389C836.5 624.824 835.93 631.069 827.806 632.481C817.978 634.199 827.108 627.981 817.574 625.04C808.041 622.098 802.867 637.578 795.716 630.62L755.256 641.72L787.811 614.808C819.873 614.813 724.45 580.172 752.466 564.582C732.934 530.168 738.36 668.969 755.256 641.72L802.692 670.615C804.09 678.699 819.39 683.013 817.574 691.014C815.759 699.014 835.346 672.298 830.596 678.987Z" fill="white"/>
<rect x="446.632" y="303.624" width="49.2933" height="162.782" rx="24.6466" transform="rotate(45 446.632 303.624)" fill="black"/>
<rect x="684.742" y="303.624" width="49.2933" height="162.782" rx="24.6466" transform="rotate(45 684.742 303.624)" fill="black"/>
<rect x="481.082" y="418.323" width="49.2933" height="162.782" rx="24.6466" transform="rotate(135 481.082 418.323)" fill="black"/>
<rect x="719.193" y="418.323" width="49.2933" height="162.782" rx="24.6466" transform="rotate(135 719.193 418.323)" fill="black"/>
<path d="M525.624 477.75C531.958 474.092 540.058 476.263 543.716 482.597V482.597C547.373 488.932 545.203 497.032 538.868 500.689L486.053 531.182C479.718 534.839 471.618 532.669 467.961 526.334V526.334C464.304 520 466.474 511.9 472.809 508.242L525.624 477.75Z" fill="black"/>
<path d="M591.772 507.755C598.107 511.412 600.277 519.512 596.62 525.847V525.847C592.963 532.181 584.863 534.352 578.528 530.695L525.713 500.202C519.379 496.545 517.208 488.445 520.866 482.11V482.11C524.523 475.775 532.623 473.605 538.958 477.262L591.772 507.755Z" fill="black"/>
<g clip-path="url(#clip0_104_307)">
<path d="M842.967 252.357C842.966 252.349 842.964 252.342 842.961 252.334L836.517 239.134C836.514 239.124 836.512 239.114 836.509 239.104C835.478 236.93 833.717 235.185 831.533 234.174C829.349 233.164 826.88 232.95 824.554 233.571L809.975 237.478C807.644 238.101 805.607 239.527 804.223 241.504C802.839 243.481 802.197 245.883 802.409 248.287L803.438 262.924C803.439 262.932 803.441 262.94 803.444 262.947C803.559 264.254 804.087 265.489 804.951 266.475C805.816 267.461 806.972 268.145 808.252 268.429C809.532 268.713 810.869 268.582 812.07 268.054C813.27 267.526 814.271 266.629 814.927 265.494L814.968 265.417L819.537 256.197L825.659 254.557L834.228 260.257C834.252 260.273 834.278 260.288 834.303 260.302C835.718 261.117 837.398 261.339 838.976 260.919C839.845 260.686 840.653 260.265 841.342 259.686C842.032 259.107 842.586 258.384 842.966 257.568C843.346 256.752 843.543 255.863 843.543 254.963C843.543 254.063 843.346 253.174 842.965 252.358L842.967 252.357ZM816.271 244.724L813.13 242.412L809.24 246.345C809.334 246.696 811.553 250.241 811.371 250.556C811.189 250.87 813.391 252.799 813.348 252.443C812.997 252.537 814.635 251.156 814.321 250.974C814.006 250.792 812.973 251.238 812.879 250.887L812.524 249.564L808.368 246.211C808.017 246.305 809.226 250.395 810.16 249.781C809.846 249.6 810.96 249.413 810.866 249.062C810.772 248.711 809.477 248.224 809.659 247.909C809.84 247.595 810.14 247.365 810.491 247.271L811.815 246.916L811.46 245.592C811.366 245.241 811.415 244.867 811.597 244.553C811.778 244.238 812.078 244.008 812.429 243.914C812.78 243.82 813.154 243.869 813.469 244.051C813.784 244.233 814.013 244.532 814.107 244.883L812.524 249.564L815.786 245.852C816.137 245.758 816.511 245.807 816.826 245.989C817.14 246.171 817.37 246.47 817.464 246.821C817.558 247.172 818.033 244.616 817.851 244.931C817.669 245.246 816.623 244.629 816.271 244.724ZM822.759 245.402C822.665 245.051 822.714 244.677 822.896 244.362C823.078 244.048 823.377 243.818 823.728 243.724L827.699 242.66C828.05 242.566 828.424 242.615 828.739 242.797C829.054 242.979 829.283 243.278 829.377 243.629C828.94 243.956 827.352 244.697 829.241 244.669C829.059 244.984 829.973 240.527 829.622 240.621L824.342 240.722C823.991 240.816 822.726 242.735 822.411 242.553C822.096 242.371 822.853 245.753 822.759 245.402ZM839.462 255.377C839.309 255.801 839.615 251.775 839.312 252.107C839.008 252.439 839.066 252.776 838.658 252.965C838.164 253.195 838.557 252.738 838.013 252.718C837.469 252.697 837.415 253.586 836.94 253.32L834.964 254.477L836.3 252.599C837.99 252.146 832.471 251.668 833.728 250.45C832.212 248.912 834.458 256.152 834.964 254.477L837.872 255.33C838.06 255.736 838.928 255.748 838.945 256.195C838.962 256.642 839.617 254.957 839.462 255.377Z" fill="white"/>
<rect x="814.552" y="243.368" width="2.68989" height="8.8829" rx="1.34495" transform="rotate(30 814.552 243.368)" fill="black"/>
<rect x="827.103" y="240.005" width="2.68989" height="8.8829" rx="1.34495" transform="rotate(30 827.103 240.005)" fill="black"/>
<rect x="817.988" y="248.927" width="2.68989" height="8.8829" rx="1.34495" transform="rotate(120 817.988 248.927)" fill="black"/>
<rect x="830.539" y="245.564" width="2.68989" height="8.8829" rx="1.34495" transform="rotate(120 830.539 245.564)" fill="black"/>
</g>
<g clip-path="url(#clip1_104_307)">
<path d="M204.906 295.143C204.904 295.135 204.902 295.127 204.899 295.12L198.456 281.919C198.453 281.909 198.45 281.899 198.448 281.889C197.416 279.715 195.656 277.971 193.472 276.96C191.287 275.949 188.818 275.736 186.493 276.357L171.914 280.263C169.583 280.887 167.546 282.313 166.162 284.29C164.778 286.267 164.135 288.669 164.347 291.073L165.377 305.71C165.378 305.718 165.38 305.725 165.383 305.733C165.497 307.039 166.025 308.275 166.89 309.26C167.754 310.246 168.911 310.931 170.191 311.215C171.471 311.499 172.808 311.367 174.008 310.839C175.209 310.311 176.209 309.415 176.866 308.28L176.907 308.203L181.475 298.982L187.597 297.342L196.167 303.042C196.191 303.059 196.216 303.073 196.241 303.088C197.656 303.903 199.337 304.125 200.915 303.705C201.784 303.471 202.592 303.05 203.281 302.471C203.97 301.892 204.524 301.17 204.905 300.354C205.285 299.538 205.482 298.649 205.482 297.748C205.482 296.848 205.284 295.959 204.904 295.143L204.906 295.143ZM178.21 287.509L175.069 285.198L171.178 289.13C171.272 289.481 173.491 293.026 173.31 293.341C173.128 293.656 175.33 295.585 175.287 295.228C174.936 295.322 176.574 293.941 176.259 293.759C175.944 293.577 174.911 294.024 174.817 293.673L174.463 292.349L170.306 288.996C169.955 289.09 171.165 293.18 172.099 292.567C171.784 292.385 172.898 292.199 172.804 291.847C172.71 291.496 171.416 291.009 171.597 290.695C171.779 290.38 172.078 290.15 172.429 290.056L173.753 289.702L173.399 288.378C173.304 288.027 173.354 287.653 173.535 287.338C173.717 287.023 174.016 286.793 174.368 286.699C174.719 286.605 175.093 286.655 175.407 286.836C175.722 287.018 175.952 287.317 176.046 287.668L174.463 292.349L177.724 288.637C178.075 288.543 178.449 288.593 178.764 288.774C179.079 288.956 179.309 289.255 179.403 289.606C179.497 289.958 179.971 287.402 179.79 287.716C179.608 288.031 178.561 287.415 178.21 287.509ZM184.698 288.188C184.604 287.837 184.653 287.463 184.834 287.148C185.016 286.833 185.316 286.603 185.667 286.509L189.638 285.445C189.989 285.351 190.363 285.4 190.678 285.582C190.992 285.764 191.222 286.063 191.316 286.414C190.878 286.742 189.29 287.483 191.179 287.454C190.998 287.769 191.912 283.312 191.561 283.406L186.281 283.507C185.93 283.601 184.664 285.52 184.35 285.338C184.035 285.157 184.792 288.539 184.698 288.188ZM201.4 298.163C201.248 298.586 201.554 294.56 201.25 294.892C200.946 295.224 201.005 295.561 200.596 295.751C200.103 295.98 200.496 295.523 199.952 295.503C199.408 295.483 199.354 296.371 198.879 296.106L196.903 297.262L198.239 295.384C199.929 294.931 194.41 294.453 195.666 293.236C194.151 291.698 196.397 298.937 196.903 297.262L199.811 298.115C199.999 298.522 200.866 298.533 200.884 298.98C200.901 299.428 201.556 297.743 201.4 298.163Z" fill="white"/>
<rect x="176.491" y="286.153" width="2.68989" height="8.8829" rx="1.34495" transform="rotate(30 176.491 286.153)" fill="black"/>
<rect x="189.041" y="282.79" width="2.68989" height="8.8829" rx="1.34495" transform="rotate(30 189.041 282.79)" fill="black"/>
<rect x="179.927" y="291.713" width="2.68989" height="8.8829" rx="1.34495" transform="rotate(120 179.927 291.713)" fill="black"/>
<rect x="192.477" y="288.35" width="2.68989" height="8.8829" rx="1.34495" transform="rotate(120 192.477 288.35)" fill="black"/>
</g>
<g clip-path="url(#clip2_104_307)">
<path d="M936.666 394.833C936.671 394.827 936.675 394.82 936.678 394.813L941.456 380.922C941.461 380.913 941.466 380.904 941.471 380.895C942.28 378.629 942.268 376.15 941.438 373.891C940.609 371.632 939.014 369.735 936.93 368.53L923.859 360.983C921.77 359.776 919.321 359.344 916.945 359.763C914.568 360.183 912.415 361.427 910.865 363.276L901.243 374.354C901.238 374.361 901.234 374.368 901.231 374.375C900.389 375.38 899.888 376.627 899.802 377.935C899.717 379.243 900.05 380.545 900.755 381.651C901.459 382.757 902.498 383.609 903.719 384.085C904.941 384.56 906.283 384.634 907.55 384.295L907.633 384.27L917.383 380.981L922.872 384.15L924.901 394.24C924.907 394.269 924.914 394.297 924.922 394.325C925.346 395.902 926.377 397.247 927.79 398.066C928.57 398.515 929.439 398.789 930.335 398.867C931.232 398.945 932.135 398.826 932.981 398.517C933.827 398.209 934.595 397.72 935.231 397.083C935.867 396.447 936.357 395.678 936.665 394.833L936.666 394.833ZM923.188 370.559L922.6 366.704L917.069 366.733C916.887 367.048 915.95 371.124 915.599 371.218C915.247 371.312 915.44 374.233 915.662 373.95C915.347 373.769 917.483 373.95 917.388 373.599C917.294 373.248 916.248 372.833 916.43 372.518L917.115 371.331L916.547 366.022C916.232 365.84 914.196 369.587 915.29 369.814C915.196 369.463 916.116 370.119 916.297 369.804C916.479 369.49 915.908 368.23 916.259 368.136C916.61 368.042 916.984 368.091 917.299 368.273L918.486 368.958L919.171 367.771C919.353 367.456 919.652 367.227 920.003 367.133C920.354 367.038 920.728 367.088 921.043 367.269C921.358 367.451 921.587 367.751 921.681 368.102C921.775 368.453 921.726 368.827 921.544 369.141L917.115 371.331L922.046 371.013C922.361 371.195 922.591 371.495 922.685 371.846C922.779 372.197 922.729 372.571 922.548 372.885C922.366 373.2 924.509 371.728 924.158 371.822C923.807 371.916 923.502 370.741 923.188 370.559ZM927.295 375.626C927.477 375.312 927.776 375.082 928.127 374.988C928.478 374.894 928.852 374.943 929.167 375.125L932.727 377.18C933.042 377.362 933.272 377.661 933.366 378.012C933.46 378.363 933.411 378.738 933.229 379.052C932.688 378.974 931.041 378.375 932.397 379.691C932.046 379.785 935.844 377.28 935.529 377.098L931.724 373.436C931.409 373.255 929.158 373.717 929.064 373.365C928.97 373.014 927.113 375.941 927.295 375.626ZM932.052 394.49C931.645 394.682 934.708 392.052 934.259 392.072C933.809 392.092 933.612 392.371 933.189 392.216C932.678 392.029 933.279 391.984 932.909 391.585C932.538 391.186 931.872 391.777 931.724 391.253L929.509 390.673L931.781 390.29C933.296 391.165 929.732 386.924 931.481 386.952C931.497 384.792 927.967 391.5 929.509 390.673L930.962 393.333C930.807 393.753 931.413 394.375 931.109 394.703C930.805 395.032 932.459 394.304 932.052 394.49Z" fill="white"/>
<rect x="922.93" y="368.385" width="2.68989" height="8.8829" rx="1.34495" transform="rotate(75 922.93 368.385)" fill="black"/>
<rect x="934.183" y="374.882" width="2.68989" height="8.8829" rx="1.34495" transform="rotate(75 934.183 374.882)" fill="black"/>
<rect x="921.429" y="374.745" width="2.68989" height="8.8829" rx="1.34495" transform="rotate(165 921.429 374.745)" fill="black"/>
<rect x="932.681" y="381.242" width="2.68989" height="8.8829" rx="1.34495" transform="rotate(165 932.681 381.242)" fill="black"/>
</g>
<g clip-path="url(#clip3_104_307)">
<path d="M926.501 118.559C926.491 118.536 926.478 118.514 926.463 118.493L896.2 83.7035C896.184 83.6756 896.168 83.6476 896.152 83.6197C891.258 77.8644 884.502 74.0062 877.059 72.7158C869.615 71.4254 861.955 72.7843 855.409 76.5564L814.378 100.246C807.816 104.031 802.798 110.009 800.208 117.128C797.618 124.248 797.621 132.052 800.217 139.169L815.23 182.714C815.24 182.737 815.253 182.759 815.268 182.779C816.676 186.646 819.281 189.964 822.703 192.251C826.125 194.537 830.188 195.673 834.3 195.494C838.412 195.315 842.359 193.83 845.57 191.255C848.78 188.679 851.087 185.147 852.153 181.172L852.217 180.906L858.577 149.237L875.807 139.289L906.422 149.61C906.509 149.641 906.597 149.665 906.685 149.688C911.638 151.01 916.912 150.317 921.356 147.762C923.803 146.348 925.909 144.415 927.529 142.1C929.149 139.784 930.242 137.142 930.732 134.36C931.221 131.577 931.096 128.72 930.364 125.991C929.633 123.262 928.312 120.726 926.496 118.561L926.501 118.559ZM839.355 117.101L827.952 112.646L819.351 127.73C819.922 128.718 829.53 137.664 829.235 138.766C828.939 139.868 837.182 143.928 836.763 142.882C835.775 143.453 839.62 137.933 838.518 137.637C837.416 137.342 834.646 139.534 834.075 138.546L831.925 134.821L816.598 128.032C815.61 128.602 822.6 140.02 824.935 137.402C823.833 137.106 827.06 135.636 826.489 134.648C825.919 133.659 821.598 133.235 821.893 132.133C822.188 131.031 822.909 130.091 823.897 129.521L827.623 127.37L825.472 123.645C824.901 122.657 824.747 121.482 825.042 120.38C825.337 119.278 826.058 118.339 827.046 117.768C828.034 117.198 829.209 117.043 830.311 117.338C831.413 117.634 832.352 118.355 832.923 119.343L831.925 134.821L838.799 120.917C839.787 120.347 840.961 120.192 842.063 120.488C843.165 120.783 844.105 121.504 844.676 122.492C845.246 123.48 844.608 115.344 844.313 116.446C844.017 117.548 840.343 116.53 839.355 117.101ZM859.577 113.888C859.007 112.9 858.852 111.726 859.148 110.624C859.443 109.522 860.164 108.582 861.152 108.012L872.328 101.559C873.316 100.989 874.491 100.834 875.593 101.13C876.695 101.425 877.634 102.146 878.205 103.134C877.144 104.482 872.93 108.019 878.634 106.398C878.339 107.5 877.491 93.2432 876.503 93.8136L860.576 98.4101C859.588 98.9806 857.309 105.827 856.207 105.531C855.105 105.236 860.148 114.876 859.577 113.888ZM918.325 130.563C918.208 131.97 915.865 119.516 915.214 120.769C914.562 122.022 915.013 122.998 913.928 123.903C912.618 125 913.439 123.295 911.773 123.675C910.107 124.055 910.665 126.795 909.009 126.375L903.957 131.487L906.482 124.707C911.238 121.961 894.116 124.995 896.937 120.283C891.091 116.851 903.784 136.977 903.957 131.487L913.469 131.711C914.369 132.79 917.008 132.12 917.424 133.462C917.84 134.805 918.457 129.164 918.325 130.563Z" fill="white"/>
<rect x="833.04" y="114.388" width="8.44376" height="27.884" rx="4.22188" transform="rotate(15 833.04 114.388)" fill="black"/>
<rect x="868.363" y="93.9941" width="8.44376" height="27.884" rx="4.22188" transform="rotate(15 868.363 93.9941)" fill="black"/>
<rect x="847.975" y="128.452" width="8.44376" height="27.884" rx="4.22188" transform="rotate(105 847.975 128.452)" fill="black"/>
<rect x="883.298" y="108.059" width="8.44376" height="27.884" rx="4.22188" transform="rotate(105 883.298 108.059)" fill="black"/>
</g>
<g clip-path="url(#clip4_104_307)">
<path d="M222.09 223.397C222.109 223.381 222.127 223.363 222.143 223.343L247.915 185.108C247.938 185.085 247.961 185.062 247.984 185.039C252.276 178.823 254.254 171.298 253.574 163.774C252.894 156.25 249.599 149.203 244.261 143.857L210.759 110.355C205.404 104.996 198.331 101.697 190.784 101.037C183.237 100.378 175.7 102.401 169.497 106.75L131.322 132.522C131.302 132.538 131.284 132.556 131.268 132.575C127.897 134.937 125.367 138.311 124.044 142.209C122.721 146.106 122.675 150.324 123.912 154.249C125.15 158.175 127.606 161.604 130.925 164.039C134.243 166.473 138.251 167.787 142.367 167.788L142.641 167.781L174.877 165.727L188.945 179.796L186.9 212.039C186.892 212.131 186.892 212.222 186.892 212.313C186.898 217.439 188.932 222.355 192.55 225.986C194.549 227.983 196.961 229.518 199.617 230.483C202.273 231.448 205.108 231.82 207.922 231.573C210.737 231.326 213.464 230.465 215.911 229.052C218.357 227.639 220.465 225.707 222.086 223.393L222.09 223.397ZM200.943 138.843L202.295 126.676L185.498 122.272C184.692 123.079 178.538 134.675 177.397 134.675C176.256 134.675 174.468 143.688 175.369 143.012C174.563 142.205 180.89 144.491 180.89 143.35C180.89 142.209 178.055 140.101 178.862 139.294L181.904 136.252L184.495 119.691C183.688 118.884 174.468 128.591 177.602 130.168C177.602 129.028 179.858 131.764 180.664 130.957C181.471 130.15 180.763 125.867 181.904 125.867C183.044 125.867 184.139 126.32 184.945 127.127L187.987 130.168L191.029 127.127C191.836 126.32 192.93 125.867 194.071 125.867C195.212 125.867 196.306 126.32 197.113 127.127C197.919 127.933 198.373 129.028 198.373 130.168C198.373 131.309 197.919 132.404 197.113 133.21L181.904 136.252L197.113 139.294C197.919 140.101 198.373 141.195 198.373 142.336C198.373 143.477 197.919 144.571 197.113 145.378C196.306 146.184 203.999 143.462 202.858 143.462C201.718 143.462 201.75 139.65 200.943 138.843ZM209.28 157.545C210.087 156.738 211.181 156.285 212.322 156.285C213.463 156.285 214.557 156.738 215.364 157.545L224.489 166.67C225.296 167.477 225.749 168.571 225.749 169.712C225.749 170.853 225.296 171.947 224.489 172.754C222.912 172.078 218.406 168.924 221.447 174.014C220.306 174.014 233.858 169.505 233.051 168.698L224.489 154.503C223.682 153.696 216.48 153.268 216.48 152.127C216.48 150.986 208.473 158.352 209.28 157.545ZM208.379 218.607C206.989 218.857 218.413 213.371 217.034 213.066C215.654 212.762 214.829 213.449 213.674 212.636C212.275 211.654 214.134 212.006 213.336 210.495C212.537 208.984 210.036 210.233 210.012 208.524L203.767 204.967L210.97 205.651C214.853 209.535 207.491 193.781 212.773 195.286C214.575 188.752 198.42 206.221 203.767 204.967L206.013 214.213C205.203 215.361 206.534 217.737 205.345 218.486C204.156 219.236 209.764 218.372 208.379 218.607Z" fill="white"/>
<rect x="201.929" y="132.041" width="8.44375" height="27.884" rx="4.22188" transform="rotate(90 201.929 132.041)" fill="black"/>
<rect x="230.77" y="160.882" width="8.44375" height="27.884" rx="4.22188" transform="rotate(90 230.77 160.882)" fill="black"/>
<rect x="192.209" y="150.107" width="8.44375" height="27.884" rx="4.22188" transform="rotate(-180 192.209 150.107)" fill="black"/>
<rect x="221.05" y="178.948" width="8.44375" height="27.884" rx="4.22188" transform="rotate(-180 221.05 178.948)" fill="black"/>
</g>
<g clip-path="url(#clip5_104_307)">
<path d="M125.358 455.926C125.377 455.91 125.395 455.893 125.411 455.873L151.183 417.637C151.206 417.614 151.228 417.592 151.251 417.569C155.544 411.352 157.522 403.828 156.842 396.304C156.162 388.78 152.866 381.732 147.529 376.386L114.027 342.884C108.672 337.525 101.599 334.226 94.0521 333.567C86.5051 332.908 78.9673 334.93 72.7644 339.28L34.5894 365.052C34.5699 365.067 34.5521 365.085 34.5362 365.105C31.1652 367.466 28.6345 370.841 27.3117 374.738C25.989 378.636 25.9429 382.854 27.1802 386.779C28.4174 390.705 30.8737 394.134 34.1923 396.568C37.511 399.003 41.5192 400.316 45.6351 400.318L45.9088 400.31L78.1446 398.257L92.2131 412.325L90.1675 444.569C90.1599 444.66 90.1599 444.751 90.1599 444.843C90.1654 449.969 92.1994 454.884 95.8177 458.516C97.817 460.512 100.229 462.047 102.885 463.012C105.541 463.977 108.375 464.35 111.19 464.102C114.005 463.855 116.731 462.995 119.178 461.582C121.625 460.169 123.733 458.237 125.354 455.922L125.358 455.926ZM104.211 371.373L105.563 359.206L88.766 354.801C87.9593 355.608 81.8058 367.204 80.6648 367.204C79.5239 367.204 77.7357 376.217 78.637 375.541C77.8302 374.735 84.1573 377.02 84.1573 375.879C84.1573 374.738 81.3227 372.63 82.1294 371.823L85.1713 368.782L87.7625 352.221C86.9557 351.414 77.7357 361.121 80.8695 362.698C80.8695 361.557 83.1253 364.293 83.932 363.487C84.7388 362.68 84.0304 358.396 85.1713 358.396C86.3122 358.396 87.4063 358.849 88.2131 359.656L91.2549 362.698L94.2968 359.656C95.1035 358.849 96.1977 358.396 97.3386 358.396C98.4795 358.396 99.5737 358.849 100.38 359.656C101.187 360.463 101.64 361.557 101.64 362.698C101.64 363.839 101.187 364.933 100.38 365.74L85.1713 368.782L100.38 371.823C101.187 372.63 101.64 373.724 101.64 374.865C101.64 376.006 101.187 377.1 100.38 377.907C99.5737 378.714 107.267 375.992 106.126 375.992C104.985 375.992 105.018 372.18 104.211 371.373ZM112.548 390.074C113.354 389.268 114.449 388.814 115.59 388.814C116.73 388.814 117.825 389.268 118.631 390.074L127.757 399.2C128.564 400.007 129.017 401.101 129.017 402.242C129.017 403.383 128.564 404.477 127.757 405.284C126.18 404.608 121.673 401.453 124.715 406.544C123.574 406.544 137.126 402.035 136.319 401.228L127.757 387.033C126.95 386.226 119.748 385.797 119.748 384.656C119.748 383.515 111.741 390.881 112.548 390.074ZM111.646 451.136C110.256 451.387 121.68 445.901 120.301 445.596C118.922 445.291 118.096 445.978 116.942 445.165C115.543 444.183 117.402 444.536 116.604 443.025C115.805 441.514 113.304 442.762 113.28 441.053L107.035 437.497L114.238 438.18C118.121 442.064 110.758 426.311 116.04 427.816C117.843 421.281 101.688 438.751 107.035 437.497L109.281 446.743C108.471 447.891 109.801 450.267 108.612 451.016C107.423 451.765 113.032 450.901 111.646 451.136Z" fill="white"/>
<rect x="105.197" y="364.571" width="8.44375" height="27.884" rx="4.22188" transform="rotate(90 105.197 364.571)" fill="black"/>
<rect x="134.038" y="393.412" width="8.44375" height="27.884" rx="4.22188" transform="rotate(90 134.038 393.412)" fill="black"/>
<rect x="95.4768" y="382.636" width="8.44375" height="27.884" rx="4.22188" transform="rotate(-180 95.4768 382.636)" fill="black"/>
<rect x="124.318" y="411.478" width="8.44375" height="27.884" rx="4.22188" transform="rotate(-180 124.318 411.478)" fill="black"/>
</g>
<g clip-path="url(#clip6_104_307)">
<path d="M541.794 146.023C541.792 146.009 541.789 145.996 541.784 145.983L530.88 123.646C530.875 123.63 530.871 123.613 530.866 123.596C529.121 119.916 526.142 116.965 522.446 115.254C518.75 113.544 514.572 113.183 510.638 114.234L485.968 120.844C482.023 121.899 478.576 124.312 476.234 127.658C473.892 131.003 472.805 135.067 473.163 139.135L474.906 163.903C474.908 163.917 474.911 163.93 474.916 163.942C475.11 166.153 476.003 168.244 477.466 169.912C478.929 171.58 480.886 172.738 483.052 173.218C485.218 173.699 487.481 173.476 489.512 172.583C491.543 171.69 493.236 170.173 494.346 168.252L494.417 168.122L502.147 152.52L512.506 149.744L527.007 159.39C527.048 159.418 527.09 159.442 527.133 159.467C529.528 160.846 532.371 161.221 535.041 160.511C536.512 160.116 537.879 159.403 539.045 158.424C540.211 157.444 541.149 156.221 541.793 154.84C542.436 153.46 542.769 151.955 542.769 150.432C542.769 148.908 542.435 147.404 541.791 146.023L541.794 146.023ZM496.622 133.105L491.306 129.194L484.723 135.849C484.882 136.443 488.637 142.441 488.329 142.974C488.022 143.506 491.747 146.77 491.675 146.167C491.081 146.327 493.853 143.989 493.32 143.681C492.788 143.374 491.04 144.129 490.88 143.535L490.28 141.295L483.247 135.622C482.653 135.781 484.7 142.701 486.281 141.664C485.748 141.356 487.633 141.04 487.474 140.446C487.315 139.852 485.124 139.028 485.432 138.496C485.739 137.963 486.246 137.575 486.84 137.415L489.08 136.815L488.48 134.575C488.32 133.981 488.404 133.348 488.711 132.816C489.019 132.283 489.525 131.894 490.119 131.735C490.713 131.576 491.346 131.659 491.879 131.967C492.412 132.274 492.8 132.781 492.959 133.375L490.28 141.295L495.8 135.015C496.394 134.856 497.027 134.939 497.559 135.246C498.092 135.554 498.48 136.06 498.64 136.654C498.799 137.248 499.602 132.923 499.294 133.456C498.987 133.989 497.216 132.946 496.622 133.105ZM507.599 134.254C507.44 133.66 507.523 133.027 507.831 132.494C508.138 131.961 508.645 131.573 509.239 131.414L515.959 129.613C516.553 129.454 517.186 129.537 517.718 129.845C518.251 130.152 518.64 130.659 518.799 131.253C518.058 131.807 515.371 133.06 518.567 133.012C518.26 133.545 519.807 126.003 519.213 126.162L510.279 126.334C509.685 126.493 507.543 129.74 507.011 129.432C506.478 129.125 507.758 134.848 507.599 134.254ZM535.862 151.132C535.605 151.849 536.123 145.037 535.609 145.599C535.095 146.16 535.193 146.731 534.502 147.051C533.667 147.439 534.332 146.666 533.412 146.632C532.491 146.597 532.4 148.102 531.596 147.652L528.252 149.609L530.513 146.431C533.372 145.665 524.033 144.856 526.16 142.796C523.595 140.193 527.396 152.443 528.252 149.609L533.174 151.053C533.491 151.74 534.959 151.759 534.989 152.516C535.018 153.273 536.126 150.422 535.862 151.132Z" fill="white"/>
<rect x="493.712" y="130.812" width="4.55169" height="15.0312" rx="2.27584" transform="rotate(30 493.712 130.812)" fill="black"/>
<rect x="514.95" y="125.121" width="4.55169" height="15.0312" rx="2.27584" transform="rotate(30 514.95 125.121)" fill="black"/>
<rect x="499.526" y="140.219" width="4.55169" height="15.0312" rx="2.27584" transform="rotate(120 499.526 140.219)" fill="black"/>
<rect x="520.764" y="134.528" width="4.55169" height="15.0312" rx="2.27584" transform="rotate(120 520.764 134.528)" fill="black"/>
</g>
<path d="M628.957 196.271C628.958 196.261 628.958 196.251 628.957 196.24L625.358 177.759C625.358 177.746 625.358 177.732 625.358 177.719C624.803 174.685 623.201 171.941 620.833 169.965C618.464 167.989 615.477 166.906 612.392 166.903H593.046C589.952 166.902 586.957 167.991 584.588 169.98C582.218 171.969 580.626 174.73 580.091 177.776L576.51 196.24C576.509 196.251 576.509 196.261 576.51 196.271C576.218 197.926 576.462 199.631 577.205 201.139C577.949 202.646 579.153 203.877 580.644 204.653C582.135 205.43 583.834 205.71 585.495 205.455C587.156 205.2 588.693 204.422 589.882 203.234L589.959 203.153L598.673 193.252H606.798L615.517 203.153C615.541 203.181 615.567 203.208 615.594 203.234C617.076 204.712 619.082 205.544 621.175 205.548C622.329 205.547 623.469 205.294 624.514 204.806C625.56 204.318 626.486 203.607 627.227 202.723C627.969 201.839 628.507 200.803 628.806 199.688C629.104 198.574 629.155 197.407 628.955 196.271H628.957ZM598.437 177.963L595.314 174.06L589.193 177.638C589.193 178.104 590.764 183.229 590.435 183.558C590.106 183.888 592.192 187.006 592.257 186.551C591.791 186.551 594.278 185.384 593.948 185.055C593.619 184.725 592.192 184.935 592.192 184.469V182.712L588.158 177.182C587.692 177.182 587.833 182.647 589.193 182.198C588.863 181.869 590.305 182.007 590.305 181.541C590.305 181.075 588.863 180.043 589.193 179.714C589.522 179.384 589.969 179.199 590.435 179.199H592.192V177.443C592.192 176.977 592.377 176.53 592.706 176.201C593.036 175.871 593.482 175.686 593.948 175.686C594.414 175.686 594.861 175.871 595.19 176.201C595.52 176.53 595.705 176.977 595.705 177.443L592.192 182.712L597.461 179.199C597.927 179.199 598.374 179.384 598.703 179.714C599.033 180.043 599.218 180.49 599.218 180.956C599.218 181.422 600.653 178.414 600.324 178.744C599.995 179.073 598.903 177.963 598.437 177.963ZM606.244 180.956C606.244 180.49 606.429 180.043 606.759 179.714C607.088 179.384 607.535 179.199 608.001 179.199H613.271C613.737 179.199 614.183 179.384 614.513 179.714C614.842 180.043 615.027 180.49 615.027 180.956C614.377 181.216 612.165 181.606 614.513 182.198C614.183 182.527 616.794 177.313 616.329 177.313L609.758 175.686C609.292 175.686 607.088 177.642 606.759 177.313C606.429 176.983 606.244 181.422 606.244 180.956ZM623.615 198.847C623.286 199.321 625.001 194.438 624.514 194.748C624.028 195.059 623.988 195.495 623.42 195.594C622.733 195.714 623.371 195.279 622.704 195.074C622.037 194.868 621.676 195.951 621.175 195.464L618.345 196.24L620.622 194.358C622.865 194.358 616.191 191.935 618.15 190.845C616.784 188.438 617.163 198.146 618.345 196.24L621.663 198.262C621.761 198.827 622.831 199.129 622.704 199.688C622.577 200.248 623.947 198.379 623.615 198.847Z" fill="white"/>
<rect x="596.758" y="175.714" width="3.44792" height="11.3862" rx="1.72396" transform="rotate(45 596.758 175.714)" fill="black"/>
<rect x="613.413" y="175.714" width="3.44792" height="11.3862" rx="1.72396" transform="rotate(45 613.413 175.714)" fill="black"/>
<rect x="599.168" y="183.737" width="3.44792" height="11.3862" rx="1.72396" transform="rotate(135 599.168 183.737)" fill="black"/>
<rect x="615.823" y="183.737" width="3.44792" height="11.3862" rx="1.72396" transform="rotate(135 615.823 183.737)" fill="black"/>
<path d="M396.615 147.905C396.616 147.895 396.616 147.884 396.615 147.874L393.016 129.393C393.016 129.379 393.016 129.366 393.016 129.353C392.461 126.319 390.859 123.575 388.49 121.599C386.122 119.623 383.135 118.539 380.05 118.537L360.704 118.537C357.61 118.536 354.615 119.625 352.246 121.614C349.876 123.603 348.284 126.363 347.749 129.41L344.168 147.874C344.166 147.884 344.166 147.895 344.168 147.905C343.876 149.56 344.12 151.265 344.863 152.772C345.607 154.28 346.811 155.511 348.302 156.287C349.792 157.063 351.492 157.344 353.153 157.089C354.814 156.834 356.351 156.056 357.54 154.868L357.616 154.786L366.331 144.886H374.456L383.175 154.786C383.199 154.815 383.225 154.841 383.252 154.868C384.734 156.346 386.74 157.178 388.833 157.182C389.987 157.181 391.127 156.928 392.172 156.44C393.218 155.952 394.144 155.241 394.885 154.356C395.627 153.472 396.165 152.437 396.464 151.322C396.762 150.208 396.813 149.041 396.613 147.905H396.615ZM366.095 129.597L362.972 125.693L356.851 129.272C356.851 129.737 358.422 134.863 358.093 135.192C357.764 135.521 359.85 138.64 359.915 138.185C359.449 138.185 361.936 137.018 361.606 136.688C361.277 136.359 359.85 136.569 359.85 136.103V134.346L355.816 128.816C355.35 128.816 355.491 134.281 356.851 133.832C356.521 133.502 357.963 133.641 357.963 133.175C357.963 132.709 356.521 131.677 356.851 131.348C357.18 131.018 357.627 130.833 358.093 130.833H359.85V129.076C359.85 128.611 360.035 128.164 360.364 127.834C360.693 127.505 361.14 127.32 361.606 127.32C362.072 127.32 362.519 127.505 362.848 127.834C363.178 128.164 363.363 128.611 363.363 129.076L359.85 134.346L365.119 130.833C365.585 130.833 366.032 131.018 366.361 131.348C366.691 131.677 366.876 132.124 366.876 132.59C366.876 133.056 368.311 130.048 367.982 130.378C367.653 130.707 366.561 129.597 366.095 129.597ZM373.902 132.59C373.902 132.124 374.087 131.677 374.417 131.348C374.746 131.018 375.193 130.833 375.659 130.833H380.929C381.395 130.833 381.841 131.018 382.171 131.348C382.5 131.677 382.685 132.124 382.685 132.59C382.035 132.85 379.823 133.24 382.171 133.832C381.841 134.161 384.452 128.946 383.986 128.946L377.416 127.32C376.95 127.32 374.746 129.276 374.417 128.946C374.087 128.617 373.902 133.056 373.902 132.59ZM391.273 150.481C390.944 150.955 392.659 146.072 392.172 146.382C391.686 146.692 391.646 147.129 391.078 147.228C390.39 147.348 391.029 146.913 390.362 146.707C389.695 146.502 389.334 147.584 388.833 147.098L386.003 147.874L388.28 145.992C390.523 145.992 383.848 143.569 385.808 142.479C384.442 140.071 384.821 149.78 386.003 147.874L389.321 149.895C389.419 150.461 390.489 150.763 390.362 151.322C390.235 151.882 391.605 150.013 391.273 150.481Z" fill="white"/>
<rect x="364.416" y="127.348" width="3.44792" height="11.3862" rx="1.72396" transform="rotate(45 364.416 127.348)" fill="black"/>
<rect x="381.071" y="127.348" width="3.44792" height="11.3862" rx="1.72396" transform="rotate(45 381.071 127.348)" fill="black"/>
<rect x="366.826" y="135.371" width="3.44792" height="11.3862" rx="1.72396" transform="rotate(135 366.826 135.371)" fill="black"/>
<rect x="383.481" y="135.371" width="3.44792" height="11.3862" rx="1.72396" transform="rotate(135 383.481 135.371)" fill="black"/>
<g clip-path="url(#clip7_104_307)">
<path d="M333.262 200.271C333.261 200.263 333.259 200.255 333.256 200.248L326.812 187.047C326.809 187.037 326.807 187.027 326.804 187.017C325.773 184.843 324.012 183.099 321.828 182.088C319.644 181.077 317.175 180.864 314.849 181.485L300.27 185.391C297.939 186.015 295.902 187.441 294.518 189.418C293.134 191.395 292.492 193.797 292.704 196.201L293.733 210.838C293.734 210.846 293.736 210.853 293.739 210.861C293.854 212.167 294.382 213.403 295.246 214.388C296.111 215.374 297.267 216.059 298.547 216.343C299.827 216.626 301.165 216.495 302.365 215.967C303.565 215.439 304.566 214.543 305.222 213.408L305.263 213.331L309.832 204.11L315.954 202.47L324.523 208.17C324.547 208.187 324.573 208.201 324.598 208.216C326.013 209.031 327.693 209.253 329.271 208.833C330.14 208.599 330.948 208.178 331.637 207.599C332.327 207.02 332.881 206.298 333.261 205.482C333.641 204.666 333.838 203.776 333.838 202.876C333.838 201.976 333.641 201.087 333.26 200.271L333.262 200.271ZM306.567 192.637L303.425 190.326L299.535 194.258C299.629 194.609 301.848 198.154 301.666 198.469C301.484 198.784 303.686 200.713 303.643 200.356C303.292 200.45 304.93 199.069 304.616 198.887C304.301 198.705 303.268 199.152 303.174 198.801L302.819 197.477L298.663 194.124C298.312 194.218 299.521 198.308 300.455 197.695C300.141 197.513 301.255 197.326 301.161 196.975C301.067 196.624 299.772 196.137 299.954 195.823C300.135 195.508 300.435 195.278 300.786 195.184L302.11 194.829L301.755 193.506C301.661 193.155 301.71 192.781 301.892 192.466C302.074 192.151 302.373 191.921 302.724 191.827C303.075 191.733 303.449 191.783 303.764 191.964C304.079 192.146 304.308 192.445 304.402 192.796L302.819 197.477L306.081 193.765C306.432 193.671 306.806 193.721 307.121 193.902C307.435 194.084 307.665 194.383 307.759 194.734C307.853 195.085 308.328 192.529 308.146 192.844C307.964 193.159 306.918 192.543 306.567 192.637ZM313.054 193.316C312.96 192.965 313.009 192.591 313.191 192.276C313.373 191.961 313.672 191.731 314.023 191.637L317.994 190.573C318.345 190.479 318.719 190.528 319.034 190.71C319.349 190.892 319.578 191.191 319.673 191.542C319.235 191.87 317.647 192.611 319.536 192.582C319.354 192.897 320.268 188.44 319.917 188.534L314.637 188.635C314.286 188.729 313.021 190.648 312.706 190.466C312.391 190.285 313.148 193.667 313.054 193.316ZM329.757 203.29C329.604 203.714 329.91 199.688 329.607 200.02C329.303 200.352 329.361 200.689 328.953 200.879C328.459 201.108 328.852 200.651 328.308 200.631C327.764 200.61 327.71 201.499 327.235 201.234L325.259 202.39L326.595 200.512C328.285 200.059 322.766 199.581 324.023 198.364C322.507 196.826 324.753 204.065 325.259 202.39L328.168 203.243C328.355 203.65 329.223 203.661 329.24 204.108C329.257 204.556 329.912 202.871 329.757 203.29Z" fill="white"/>
<rect x="304.847" y="191.281" width="2.68989" height="8.8829" rx="1.34495" transform="rotate(30 304.847 191.281)" fill="black"/>
<rect x="317.398" y="187.918" width="2.68989" height="8.8829" rx="1.34495" transform="rotate(30 317.398 187.918)" fill="black"/>
<rect x="308.283" y="196.841" width="2.68989" height="8.8829" rx="1.34495" transform="rotate(120 308.283 196.841)" fill="black"/>
<rect x="320.834" y="193.478" width="2.68989" height="8.8829" rx="1.34495" transform="rotate(120 320.834 193.478)" fill="black"/>
</g>
<g clip-path="url(#clip8_104_307)">
<path d="M443.016 196.55C443.015 196.542 443.013 196.535 443.01 196.527L436.566 183.327C436.563 183.317 436.561 183.307 436.558 183.297C435.527 181.122 433.766 179.378 431.582 178.367C429.398 177.357 426.929 177.143 424.603 177.764L410.024 181.671C407.693 182.294 405.656 183.72 404.272 185.697C402.888 187.674 402.246 190.076 402.458 192.48L403.487 207.117C403.488 207.125 403.49 207.133 403.493 207.14C403.608 208.446 404.136 209.682 405 210.668C405.865 211.654 407.021 212.338 408.301 212.622C409.581 212.906 410.918 212.775 412.119 212.247C413.319 211.719 414.32 210.822 414.976 209.687L415.017 209.61L419.586 200.39L425.708 198.749L434.277 204.45C434.301 204.466 434.327 204.481 434.352 204.495C435.767 205.31 437.447 205.532 439.025 205.112C439.894 204.879 440.702 204.458 441.391 203.879C442.081 203.3 442.635 202.577 443.015 201.761C443.395 200.945 443.592 200.056 443.592 199.156C443.592 198.256 443.395 197.366 443.014 196.551L443.016 196.55ZM416.32 188.916L413.179 186.605L409.289 190.538C409.383 190.889 411.602 194.434 411.42 194.748C411.238 195.063 413.44 196.992 413.397 196.636C413.046 196.73 414.684 195.348 414.37 195.167C414.055 194.985 413.022 195.431 412.928 195.08L412.573 193.756L408.417 190.404C408.066 190.498 409.275 194.588 410.209 193.974C409.895 193.792 411.009 193.606 410.915 193.255C410.821 192.904 409.526 192.417 409.708 192.102C409.889 191.787 410.189 191.558 410.54 191.464L411.864 191.109L411.509 189.785C411.415 189.434 411.464 189.06 411.646 188.745C411.827 188.431 412.127 188.201 412.478 188.107C412.829 188.013 413.203 188.062 413.518 188.244C413.833 188.426 414.062 188.725 414.156 189.076L412.573 193.756L415.835 190.045C416.186 189.951 416.56 190 416.875 190.182C417.189 190.364 417.419 190.663 417.513 191.014C417.607 191.365 418.082 188.809 417.9 189.124C417.718 189.439 416.672 188.822 416.32 188.916ZM422.808 189.595C422.714 189.244 422.763 188.87 422.945 188.555C423.127 188.241 423.426 188.011 423.777 187.917L427.748 186.853C428.099 186.759 428.473 186.808 428.788 186.99C429.103 187.171 429.332 187.471 429.426 187.822C428.989 188.149 427.401 188.89 429.29 188.862C429.108 189.176 430.022 184.72 429.671 184.814L424.391 184.915C424.04 185.009 422.775 186.928 422.46 186.746C422.145 186.564 422.902 189.946 422.808 189.595ZM439.511 199.57C439.358 199.993 439.664 195.968 439.361 196.3C439.057 196.632 439.115 196.969 438.707 197.158C438.213 197.387 438.606 196.931 438.062 196.91C437.518 196.89 437.464 197.779 436.989 197.513L435.013 198.67L436.349 196.791C438.039 196.339 432.52 195.861 433.777 194.643C432.261 193.105 434.507 200.345 435.013 198.67L437.922 199.523C438.109 199.929 438.977 199.941 438.994 200.388C439.011 200.835 439.666 199.15 439.511 199.57Z" fill="white"/>
<rect x="414.601" y="187.561" width="2.68989" height="8.8829" rx="1.34495" transform="rotate(30 414.601 187.561)" fill="black"/>
<rect x="427.152" y="184.198" width="2.68989" height="8.8829" rx="1.34495" transform="rotate(30 427.152 184.198)" fill="black"/>
<rect x="418.037" y="193.12" width="2.68989" height="8.8829" rx="1.34495" transform="rotate(120 418.037 193.12)" fill="black"/>
<rect x="430.588" y="189.757" width="2.68989" height="8.8829" rx="1.34495" transform="rotate(120 430.588 189.757)" fill="black"/>
</g>
<g clip-path="url(#clip9_104_307)">
<path d="M322.473 107.816C322.471 107.803 322.467 107.79 322.462 107.777L311.781 85.8945C311.776 85.878 311.772 85.8616 311.767 85.8451C310.058 82.2405 307.139 79.3489 303.518 77.6733C299.897 75.9976 295.804 75.6438 291.95 76.6733L267.781 83.1492C263.917 84.1832 260.54 86.5468 258.246 89.8243C255.951 93.1018 254.886 97.0834 255.238 101.069L256.944 125.333C256.946 125.346 256.95 125.359 256.954 125.371C257.144 127.537 258.019 129.585 259.453 131.219C260.886 132.853 262.803 133.988 264.925 134.459C267.047 134.929 269.264 134.711 271.253 133.836C273.243 132.962 274.902 131.475 275.99 129.593L276.058 129.466L283.631 114.181L293.78 111.462L307.987 120.911C308.026 120.939 308.068 120.963 308.11 120.987C310.456 122.338 313.241 122.705 315.857 122.01C317.298 121.622 318.637 120.924 319.78 119.965C320.922 119.005 321.841 117.807 322.471 116.454C323.101 115.102 323.428 113.627 323.428 112.135C323.427 110.643 323.101 109.169 322.47 107.817L322.473 107.816ZM278.219 95.1609L273.011 91.3298L266.562 97.8488C266.718 98.4308 270.396 104.307 270.095 104.829C269.794 105.351 273.443 108.548 273.372 107.958C272.79 108.114 275.506 105.823 274.985 105.522C274.463 105.221 272.75 105.961 272.594 105.379L272.006 103.184L265.116 97.6264C264.534 97.7823 266.539 104.562 268.088 103.545C267.566 103.244 269.413 102.935 269.257 102.353C269.101 101.771 266.955 100.964 267.256 100.442C267.558 99.9203 268.054 99.5396 268.636 99.3836L270.83 98.7957L270.242 96.6013C270.086 96.0193 270.168 95.3992 270.469 94.8774C270.77 94.3556 271.267 93.9749 271.849 93.8189C272.431 93.663 273.051 93.7446 273.573 94.0459C274.094 94.3471 274.475 94.8433 274.631 95.4253L272.006 103.184L277.413 97.0317C277.995 96.8758 278.615 96.9574 279.137 97.2587C279.659 97.5599 280.04 98.0561 280.196 98.6381C280.352 99.2201 281.138 94.9828 280.837 95.5046C280.536 96.0264 278.801 95.0049 278.219 95.1609ZM288.973 96.2862C288.817 95.7042 288.899 95.0841 289.2 94.5623C289.501 94.0405 289.998 93.6598 290.58 93.5038L297.163 91.7399C297.745 91.584 298.365 91.6656 298.887 91.9669C299.408 92.2681 299.789 92.7643 299.945 93.3463C299.219 93.8892 296.587 95.1172 299.718 95.0702C299.417 95.592 300.933 88.2035 300.351 88.3595L291.598 88.5271C291.016 88.6831 288.918 91.8639 288.396 91.5627C287.875 91.2614 289.129 96.8682 288.973 96.2862ZM316.662 112.822C316.409 113.524 316.917 106.85 316.413 107.401C315.91 107.951 316.006 108.51 315.329 108.823C314.511 109.204 315.163 108.447 314.261 108.413C313.359 108.379 313.269 109.853 312.482 109.412L309.206 111.329L311.421 108.216C314.222 107.465 305.073 106.673 307.156 104.654C304.644 102.105 308.368 114.106 309.206 111.329L314.028 112.744C314.339 113.417 315.777 113.436 315.805 114.178C315.834 114.919 316.92 112.126 316.662 112.822Z" fill="white"/>
<rect x="275.368" y="92.9138" width="4.45914" height="14.7255" rx="2.22957" transform="rotate(30 275.368 92.9138)" fill="black"/>
<rect x="296.174" y="87.3389" width="4.45914" height="14.7255" rx="2.22957" transform="rotate(30 296.174 87.3389)" fill="black"/>
<rect x="281.064" y="102.13" width="4.45914" height="14.7255" rx="2.22957" transform="rotate(120 281.064 102.13)" fill="black"/>
<rect x="301.87" y="96.5547" width="4.45914" height="14.7255" rx="2.22957" transform="rotate(120 301.87 96.5547)" fill="black"/>
</g>
<g clip-path="url(#clip10_104_307)">
<path d="M521.025 208.113C521.026 208.11 521.027 208.106 521.028 208.103L521.499 201.326C521.501 201.321 521.502 201.316 521.503 201.312C521.593 200.203 521.291 199.097 520.65 198.187C520.009 197.277 519.069 196.621 517.994 196.332L511.252 194.525C510.174 194.236 509.029 194.336 508.017 194.808C507.006 195.279 506.193 196.093 505.722 197.105L502.75 203.205C502.748 203.208 502.747 203.212 502.747 203.216C502.491 203.765 502.416 204.382 502.535 204.977C502.653 205.572 502.958 206.113 503.405 206.523C503.852 206.933 504.418 207.189 505.021 207.255C505.623 207.322 506.232 207.194 506.757 206.891L506.791 206.87L510.753 204.233L513.584 204.992L515.698 209.256C515.704 209.269 515.711 209.28 515.718 209.292C516.096 209.946 516.717 210.423 517.447 210.62C517.849 210.727 518.27 210.745 518.68 210.673C519.089 210.6 519.479 210.439 519.819 210.2C520.16 209.961 520.445 209.651 520.653 209.29C520.861 208.93 520.988 208.528 521.024 208.113L521.025 208.113ZM512.098 198.883L511.374 197.231L508.907 197.906C508.863 198.069 508.933 200.002 508.787 200.086C508.641 200.17 509.077 201.451 509.142 201.299C508.98 201.255 509.956 201.081 509.872 200.935C509.788 200.79 509.271 200.729 509.314 200.567L509.478 199.955L508.589 197.651C508.426 197.607 507.965 199.525 508.481 199.496C508.397 199.35 508.886 199.533 508.93 199.371C508.973 199.208 508.568 198.714 508.713 198.63C508.859 198.546 509.032 198.523 509.194 198.566L509.806 198.731L509.97 198.118C510.014 197.956 510.12 197.818 510.265 197.734C510.411 197.649 510.584 197.627 510.746 197.67C510.909 197.714 511.047 197.82 511.131 197.966C511.215 198.111 511.238 198.284 511.195 198.446L509.478 199.955L511.643 199.223C511.805 199.266 511.943 199.372 512.028 199.518C512.112 199.663 512.134 199.836 512.091 199.999C512.047 200.161 512.828 199.247 512.683 199.331C512.537 199.415 512.261 198.926 512.098 198.883ZM514.54 200.655C514.583 200.493 514.689 200.354 514.835 200.27C514.98 200.186 515.153 200.163 515.316 200.207L517.152 200.699C517.315 200.742 517.453 200.849 517.537 200.994C517.621 201.14 517.644 201.313 517.6 201.475C517.349 201.505 516.542 201.435 517.305 201.86C517.16 201.944 518.556 200.37 518.394 200.327L516.256 199.146C516.094 199.103 515.143 199.579 515.059 199.433C514.975 199.288 514.496 200.817 514.54 200.655ZM518.923 208.512C518.764 208.647 519.817 207.105 519.619 207.168C519.42 207.23 519.366 207.379 519.158 207.36C518.908 207.338 519.171 207.246 518.958 207.112C518.744 206.978 518.517 207.322 518.388 207.105L517.329 207.112L518.299 206.668C519.08 206.878 516.981 205.41 517.765 205.213C517.514 204.247 516.74 207.665 517.329 207.112L518.297 208.126C518.278 208.332 518.623 208.537 518.527 208.72C518.43 208.903 519.082 208.38 518.923 208.512Z" fill="white"/>
<rect x="511.723" y="197.942" width="1.24399" height="4.10806" rx="0.621995" transform="rotate(60 511.723 197.942)" fill="black"/>
<rect x="517.527" y="199.498" width="1.24399" height="4.10806" rx="0.621995" transform="rotate(60 517.527 199.498)" fill="black"/>
<rect x="511.814" y="200.963" width="1.24399" height="4.10806" rx="0.621995" transform="rotate(150 511.814 200.963)" fill="black"/>
<rect x="517.618" y="202.519" width="1.24399" height="4.10806" rx="0.621995" transform="rotate(150 517.618 202.519)" fill="black"/>
</g>
<g clip-path="url(#clip11_104_307)">
<path d="M794.48 209.974C794.481 209.97 794.482 209.967 794.483 209.963L794.954 203.186C794.955 203.181 794.957 203.177 794.958 203.172C795.048 202.063 794.746 200.957 794.105 200.047C793.464 199.137 792.524 198.481 791.449 198.192L784.707 196.385C783.629 196.096 782.484 196.196 781.472 196.668C780.461 197.14 779.648 197.953 779.177 198.965L776.205 205.065C776.203 205.069 776.202 205.072 776.202 205.076C775.946 205.626 775.871 206.243 775.99 206.837C776.108 207.432 776.413 207.974 776.86 208.383C777.307 208.793 777.873 209.05 778.476 209.116C779.078 209.182 779.686 209.054 780.212 208.751L780.246 208.73L784.208 206.094L787.039 206.852L789.153 211.117C789.159 211.129 789.166 211.141 789.172 211.152C789.551 211.806 790.172 212.283 790.901 212.48C791.304 212.588 791.724 212.606 792.134 212.533C792.544 212.461 792.933 212.299 793.274 212.06C793.615 211.822 793.9 211.511 794.108 211.15C794.316 210.79 794.443 210.388 794.479 209.973L794.48 209.974ZM785.553 200.743L784.829 199.091L782.362 199.767C782.318 199.929 782.387 201.862 782.242 201.946C782.096 202.03 782.532 203.312 782.597 203.159C782.435 203.116 783.411 202.941 783.326 202.795C783.242 202.65 782.725 202.59 782.769 202.427L782.933 201.815L782.044 199.511C781.881 199.468 781.42 201.386 781.936 201.356C781.852 201.21 782.341 201.393 782.385 201.231C782.428 201.069 782.022 200.574 782.168 200.49C782.314 200.406 782.487 200.383 782.649 200.427L783.261 200.591L783.425 199.979C783.469 199.816 783.575 199.678 783.72 199.594C783.866 199.51 784.039 199.487 784.201 199.531C784.364 199.574 784.502 199.68 784.586 199.826C784.67 199.971 784.693 200.144 784.649 200.307L782.933 201.815L785.098 201.083C785.26 201.126 785.398 201.233 785.482 201.378C785.566 201.524 785.589 201.697 785.546 201.859C785.502 202.022 786.283 201.108 786.138 201.192C785.992 201.276 785.715 200.787 785.553 200.743ZM787.994 202.515C788.038 202.353 788.144 202.215 788.29 202.13C788.435 202.046 788.608 202.024 788.771 202.067L790.607 202.559C790.77 202.603 790.908 202.709 790.992 202.855C791.076 203 791.099 203.173 791.055 203.335C790.804 203.365 789.997 203.295 790.76 203.72C790.614 203.804 792.011 202.231 791.849 202.187L789.711 201.007C789.549 200.963 788.598 201.439 788.514 201.294C788.43 201.148 787.951 202.678 787.994 202.515ZM792.377 210.373C792.219 210.507 793.272 208.965 793.074 209.028C792.875 209.091 792.82 209.239 792.613 209.221C792.362 209.198 792.626 209.106 792.412 208.972C792.199 208.838 791.972 209.182 791.843 208.966L790.784 208.972L791.754 208.529C792.535 208.738 790.435 207.27 791.22 207.073C790.969 206.107 790.194 209.526 790.784 208.972L791.752 209.986C791.733 210.192 792.078 210.397 791.981 210.581C791.885 210.764 792.537 210.24 792.377 210.373Z" fill="white"/>
<rect x="785.178" y="199.803" width="1.24399" height="4.10806" rx="0.621995" transform="rotate(60 785.178 199.803)" fill="black"/>
<rect x="790.982" y="201.358" width="1.24399" height="4.10806" rx="0.621995" transform="rotate(60 790.982 201.358)" fill="black"/>
<rect x="785.268" y="202.824" width="1.24399" height="4.10806" rx="0.621995" transform="rotate(150 785.268 202.824)" fill="black"/>
<rect x="791.073" y="204.379" width="1.24399" height="4.10806" rx="0.621995" transform="rotate(150 791.073 204.379)" fill="black"/>
</g>
<g clip-path="url(#clip12_104_307)">
<path d="M733.975 184.406C733.98 184.394 733.983 184.381 733.986 184.367L735.711 159.571C735.716 159.554 735.72 159.537 735.725 159.521C736.053 155.461 734.948 151.416 732.603 148.086C730.258 144.757 726.82 142.355 722.887 141.298L698.217 134.688C694.273 133.629 690.082 133.996 686.381 135.722C682.68 137.448 679.706 140.424 677.983 144.127L667.107 166.447C667.103 166.46 667.099 166.473 667.097 166.487C666.16 168.498 665.888 170.755 666.321 172.931C666.754 175.107 667.869 177.088 669.505 178.588C671.14 180.087 673.211 181.025 675.417 181.268C677.622 181.51 679.847 181.042 681.769 179.934L681.895 179.857L696.391 170.209L706.75 172.985L714.486 188.589C714.507 188.634 714.531 188.676 714.556 188.719C715.94 191.111 718.215 192.857 720.882 193.577C722.354 193.97 723.894 194.037 725.394 193.772C726.894 193.506 728.317 192.916 729.565 192.042C730.812 191.168 731.853 190.031 732.615 188.712C733.376 187.393 733.839 185.923 733.972 184.406L733.975 184.406ZM701.313 150.633L698.665 144.589L689.636 147.06C689.477 147.654 689.73 154.726 689.197 155.034C688.665 155.341 690.259 160.031 690.498 159.472C689.904 159.313 693.474 158.675 693.166 158.142C692.858 157.609 690.967 157.389 691.126 156.795L691.726 154.555L688.472 146.126C687.878 145.966 686.19 152.983 688.078 152.875C687.771 152.342 689.561 153.011 689.721 152.417C689.88 151.823 688.395 150.015 688.927 149.707C689.46 149.399 690.093 149.316 690.687 149.475L692.927 150.076L693.527 147.836C693.686 147.242 694.075 146.735 694.607 146.428C695.14 146.12 695.773 146.037 696.367 146.196C696.961 146.355 697.468 146.744 697.775 147.276C698.083 147.809 698.166 148.442 698.007 149.036L691.726 154.555L699.646 151.876C700.24 152.035 700.747 152.424 701.054 152.957C701.362 153.489 701.445 154.122 701.286 154.716C701.127 155.31 703.985 151.966 703.452 152.273C702.92 152.581 701.907 150.792 701.313 150.633ZM710.246 157.117C710.405 156.523 710.794 156.016 711.326 155.709C711.859 155.401 712.492 155.318 713.086 155.477L719.806 157.278C720.4 157.437 720.906 157.826 721.214 158.358C721.521 158.891 721.605 159.524 721.445 160.118C720.527 160.227 717.573 159.969 720.365 161.526C719.832 161.833 724.943 156.076 724.349 155.917L716.526 151.598C715.932 151.438 712.454 153.18 712.147 152.647C711.839 152.114 710.087 157.711 710.246 157.117ZM726.283 185.866C725.702 186.358 729.556 180.717 728.83 180.947C728.104 181.176 727.904 181.72 727.146 181.651C726.228 181.57 727.191 181.233 726.411 180.743C725.631 180.253 724.8 181.51 724.328 180.718L720.454 180.742L724.001 179.119C726.86 179.886 719.177 174.516 722.049 173.795C721.129 170.258 718.296 182.768 720.454 180.742L723.994 184.452C723.926 185.207 725.187 185.957 724.834 186.627C724.481 187.298 726.867 185.383 726.283 185.866Z" fill="white"/>
<rect x="699.94" y="147.192" width="4.55169" height="15.0312" rx="2.27584" transform="rotate(60 699.94 147.192)" fill="black"/>
<rect x="721.178" y="152.883" width="4.55169" height="15.0312" rx="2.27584" transform="rotate(60 721.178 152.883)" fill="black"/>
<rect x="700.272" y="158.246" width="4.55169" height="15.0312" rx="2.27584" transform="rotate(150 700.272 158.246)" fill="black"/>
<rect x="721.509" y="163.936" width="4.55169" height="15.0312" rx="2.27584" transform="rotate(150 721.509 163.936)" fill="black"/>
</g>
<g clip-path="url(#clip13_104_307)">
<path d="M925.003 315.304C925.001 315.291 924.997 315.278 924.992 315.265L914.089 292.928C914.084 292.911 914.08 292.894 914.075 292.877C912.33 289.198 909.351 286.246 905.655 284.536C901.959 282.826 897.781 282.464 893.846 283.515L869.176 290.126C865.231 291.181 861.785 293.594 859.443 296.939C857.101 300.285 856.014 304.349 856.372 308.417L858.114 333.185C858.116 333.198 858.12 333.211 858.125 333.224C858.319 335.434 859.212 337.525 860.675 339.193C862.138 340.861 864.094 342.019 866.261 342.5C868.427 342.98 870.689 342.758 872.72 341.865C874.751 340.972 876.445 339.455 877.555 337.534L877.625 337.404L885.355 321.801L895.715 319.025L910.216 328.671C910.257 328.699 910.299 328.724 910.342 328.748C912.736 330.127 915.579 330.503 918.25 329.792C919.721 329.397 921.088 328.685 922.254 327.705C923.42 326.726 924.358 325.502 925.001 324.122C925.645 322.741 925.978 321.236 925.978 319.713C925.977 318.19 925.644 316.685 925 315.305L925.003 315.304ZM879.83 302.386L874.515 298.476L867.931 305.13C868.091 305.724 871.846 311.723 871.538 312.255C871.231 312.788 874.956 316.052 874.883 315.449C874.289 315.608 877.062 313.27 876.529 312.963C875.997 312.655 874.248 313.411 874.089 312.816L873.489 310.577L866.456 304.903C865.862 305.062 867.908 311.983 869.489 310.945C868.957 310.638 870.842 310.322 870.683 309.728C870.524 309.134 868.333 308.31 868.641 307.777C868.948 307.245 869.455 306.856 870.049 306.697L872.289 306.097L871.688 303.857C871.529 303.263 871.613 302.63 871.92 302.097C872.228 301.565 872.734 301.176 873.328 301.017C873.922 300.858 874.555 300.941 875.088 301.248C875.62 301.556 876.009 302.062 876.168 302.656L873.489 310.577L879.008 304.296C879.602 304.137 880.235 304.22 880.768 304.528C881.301 304.835 881.689 305.342 881.848 305.936C882.008 306.53 882.81 302.205 882.503 302.737C882.195 303.27 880.424 302.227 879.83 302.386ZM890.808 303.535C890.649 302.941 890.732 302.308 891.04 301.776C891.347 301.243 891.854 300.854 892.448 300.695L899.168 298.895C899.762 298.735 900.395 298.819 900.927 299.126C901.46 299.434 901.848 299.94 902.008 300.534C901.267 301.088 898.58 302.342 901.776 302.294C901.468 302.827 903.016 295.285 902.422 295.444L893.487 295.615C892.893 295.774 890.752 299.021 890.219 298.714C889.687 298.406 890.967 304.129 890.808 303.535ZM919.071 320.414C918.814 321.13 919.332 314.319 918.818 314.88C918.303 315.442 918.402 316.013 917.711 316.333C916.875 316.721 917.541 315.948 916.621 315.913C915.7 315.879 915.608 317.383 914.804 316.934L911.461 318.891L913.721 315.712C916.581 314.946 907.242 314.137 909.369 312.077C906.804 309.474 910.605 321.725 911.461 318.891L916.382 320.334C916.7 321.022 918.168 321.041 918.197 321.798C918.227 322.555 919.335 319.704 919.071 320.414Z" fill="white"/>
<rect x="876.921" y="300.093" width="4.55169" height="15.0312" rx="2.27584" transform="rotate(30 876.921 300.093)" fill="black"/>
<rect x="898.158" y="294.402" width="4.55169" height="15.0312" rx="2.27584" transform="rotate(30 898.158 294.402)" fill="black"/>
<rect x="882.735" y="309.5" width="4.55169" height="15.0312" rx="2.27584" transform="rotate(120 882.735 309.5)" fill="black"/>
<rect x="903.972" y="303.809" width="4.55169" height="15.0312" rx="2.27584" transform="rotate(120 903.972 303.809)" fill="black"/>
</g>
<g clip-path="url(#clip14_104_307)">
<path d="M153.005 255.776C153.003 255.763 152.999 255.75 152.994 255.737L142.09 233.4C142.086 233.383 142.081 233.367 142.077 233.35C140.332 229.67 137.352 226.719 133.657 225.008C129.961 223.298 125.782 222.937 121.848 223.988L97.1782 230.598C93.2332 231.653 89.7866 234.066 87.4447 237.412C85.1027 240.757 84.0154 244.821 84.374 248.889L86.116 273.657C86.1182 273.671 86.1217 273.684 86.1265 273.696C86.3204 275.907 87.2136 277.998 88.6766 279.666C90.1396 281.334 92.0962 282.492 94.2622 282.972C96.4283 283.453 98.6911 283.23 100.722 282.337C102.753 281.444 104.447 279.927 105.557 278.006L105.627 277.876L113.357 262.274L123.717 259.498L138.218 269.143C138.258 269.172 138.301 269.196 138.344 269.221C140.738 270.6 143.581 270.975 146.252 270.265C147.723 269.87 149.089 269.157 150.256 268.178C151.422 267.198 152.36 265.975 153.003 264.594C153.646 263.213 153.98 261.709 153.979 260.186C153.979 258.662 153.646 257.158 153.002 255.777L153.005 255.776ZM107.832 242.859L102.516 238.948L95.9331 245.603C96.0922 246.197 99.8473 252.195 99.5397 252.728C99.2322 253.26 102.958 256.524 102.885 255.921C102.291 256.081 105.063 253.743 104.531 253.435C103.998 253.128 102.25 253.883 102.091 253.289L101.491 251.049L94.4577 245.376C93.8637 245.535 95.9102 252.455 97.4911 251.417C96.9585 251.11 98.8439 250.794 98.6847 250.2C98.5256 249.606 96.3348 248.782 96.6423 248.25C96.9498 247.717 97.4563 247.328 98.0504 247.169L100.29 246.569L99.6901 244.329C99.531 243.735 99.6143 243.102 99.9218 242.57C100.229 242.037 100.736 241.648 101.33 241.489C101.924 241.33 102.557 241.413 103.09 241.721C103.622 242.028 104.011 242.535 104.17 243.129L101.491 251.049L107.01 244.769C107.604 244.609 108.237 244.693 108.77 245C109.302 245.308 109.691 245.814 109.85 246.408C110.009 247.002 110.812 242.677 110.505 243.21C110.197 243.742 108.426 242.7 107.832 242.859ZM118.81 244.008C118.651 243.414 118.734 242.781 119.041 242.248C119.349 241.715 119.855 241.327 120.45 241.167L127.169 239.367C127.763 239.208 128.396 239.291 128.929 239.599C129.462 239.906 129.85 240.413 130.009 241.007C129.269 241.561 126.581 242.814 129.778 242.766C129.47 243.299 131.018 235.757 130.424 235.916L121.489 236.087C120.895 236.247 118.754 239.494 118.221 239.186C117.688 238.879 118.969 244.602 118.81 244.008ZM147.073 260.886C146.815 261.603 147.333 254.791 146.819 255.353C146.305 255.914 146.404 256.485 145.713 256.805C144.877 257.193 145.543 256.42 144.622 256.386C143.702 256.351 143.61 257.856 142.806 257.406L139.463 259.363L141.723 256.185C144.583 255.419 135.244 254.61 137.37 252.55C134.806 249.947 138.607 262.197 139.463 259.363L144.384 260.807C144.702 261.494 146.17 261.513 146.199 262.27C146.228 263.027 147.337 260.176 147.073 260.886Z" fill="white"/>
<rect x="104.922" y="240.565" width="4.55169" height="15.0312" rx="2.27584" transform="rotate(30 104.922 240.565)" fill="black"/>
<rect x="126.16" y="234.875" width="4.55169" height="15.0312" rx="2.27584" transform="rotate(30 126.16 234.875)" fill="black"/>
<rect x="110.736" y="249.972" width="4.55169" height="15.0312" rx="2.27584" transform="rotate(120 110.736 249.972)" fill="black"/>
<rect x="131.974" y="244.282" width="4.55169" height="15.0312" rx="2.27584" transform="rotate(120 131.974 244.282)" fill="black"/>
</g>
<g clip-path="url(#clip15_104_307)">
<path d="M658.244 74.0961C658.24 74.0765 658.235 74.0572 658.228 74.0387L642.249 41.3033C642.242 41.2787 642.235 41.2541 642.229 41.2295C639.671 35.8371 635.305 31.5116 629.888 29.0049C624.472 26.4983 618.349 25.9689 612.583 27.509L576.429 37.1965C570.647 38.7433 565.596 42.2791 562.164 47.182C558.732 52.085 557.139 58.0411 557.664 64.0029L560.217 100.301C560.22 100.32 560.225 100.34 560.232 100.358C560.516 103.597 561.826 106.662 563.97 109.106C566.114 111.551 568.981 113.248 572.155 113.952C575.33 114.656 578.646 114.33 581.623 113.021C584.599 111.713 587.081 109.489 588.708 106.674L588.811 106.484L600.139 83.618L615.321 79.55L636.573 93.6857C636.632 93.7269 636.695 93.763 636.757 93.799C640.267 95.8201 644.433 96.3701 648.347 95.329C650.503 94.7499 652.505 93.7058 654.215 92.2701C655.924 90.8345 657.298 89.042 658.241 87.0186C659.184 84.9952 659.672 82.79 659.672 80.5577C659.672 78.3255 659.183 76.1203 658.239 74.0972L658.244 74.0961ZM592.042 55.1652L584.252 49.4342L574.604 59.1862C574.837 60.0569 580.34 68.8474 579.89 69.628C579.439 70.4085 584.899 75.1921 584.792 74.3084C583.922 74.5417 587.985 71.1158 587.204 70.6651C586.424 70.2145 583.862 71.3211 583.628 70.4505L582.749 67.1679L572.442 58.8534C571.571 59.0867 574.57 69.2289 576.887 67.7079C576.107 67.2573 578.87 66.7948 578.637 65.9242C578.403 65.0536 575.193 63.8462 575.643 63.0656C576.094 62.285 576.836 61.7155 577.707 61.4822L580.99 60.6026L580.11 57.32C579.877 56.4494 579.999 55.5218 580.45 54.7412C580.9 53.9606 581.643 53.3911 582.513 53.1578C583.384 52.9245 584.311 53.0466 585.092 53.4973C585.873 53.9479 586.442 54.6902 586.675 55.5608L582.749 67.1679L590.838 57.9639C591.708 57.7306 592.636 57.8527 593.416 58.3034C594.197 58.754 594.766 59.4963 595 60.3669C595.233 61.2375 596.41 54.8989 595.959 55.6794C595.508 56.46 592.913 54.9319 592.042 55.1652ZM608.13 56.8486C607.897 55.978 608.019 55.0504 608.47 54.2698C608.92 53.4893 609.663 52.9197 610.533 52.6864L620.381 50.0477C621.252 49.8144 622.179 49.9365 622.96 50.3872C623.741 50.8378 624.31 51.5801 624.543 52.4507C623.458 53.2628 619.52 55.0999 624.204 55.0295C623.753 55.8101 626.021 44.7575 625.151 44.9908L612.057 45.2416C611.186 45.4748 608.048 50.2332 607.267 49.7826C606.487 49.3319 608.364 57.7192 608.13 56.8486ZM649.551 81.5848C649.173 82.6348 649.932 72.6518 649.179 73.475C648.425 74.2982 648.569 75.1345 647.557 75.6035C646.333 76.1724 647.308 75.0398 645.959 74.9893C644.61 74.9387 644.476 77.1432 643.297 76.4843L638.397 79.3523L641.71 74.6944C645.901 73.572 632.215 72.3861 635.331 69.367C631.572 65.5527 637.143 83.5058 638.397 79.3523L645.61 81.4679C646.076 82.4756 648.227 82.5036 648.27 83.613C648.313 84.7223 649.937 80.5441 649.551 81.5848Z" fill="white"/>
<rect x="587.778" y="51.804" width="6.67058" height="22.0284" rx="3.33529" transform="rotate(30 587.778 51.804)" fill="black"/>
<rect x="618.902" y="43.4641" width="6.67058" height="22.0284" rx="3.33529" transform="rotate(30 618.902 43.4641)" fill="black"/>
<rect x="596.299" y="65.5898" width="6.67058" height="22.0284" rx="3.33529" transform="rotate(120 596.299 65.5898)" fill="black"/>
<rect x="627.423" y="57.2502" width="6.67058" height="22.0284" rx="3.33529" transform="rotate(120 627.423 57.2502)" fill="black"/>
</g>
<path d="M482.741 73.8097C482.744 73.7899 482.744 73.77 482.741 73.7502L475.779 37.9945C475.779 37.969 475.779 37.9435 475.779 37.918C474.704 32.0475 471.606 26.7392 467.023 22.9161C462.44 19.093 456.662 16.9969 450.694 16.9922L413.265 16.9922C407.28 16.9899 401.486 19.0979 396.902 22.9455C392.318 26.7931 389.237 32.1339 388.201 38.0285L381.273 73.7502C381.271 73.77 381.271 73.7899 381.273 73.8097C380.709 77.012 381.18 80.3106 382.619 83.2268C384.057 86.1429 386.387 88.5248 389.271 90.0264C392.155 91.5281 395.443 92.0715 398.657 91.5777C401.871 91.0838 404.843 89.5785 407.143 87.2802L407.292 87.123L424.153 67.9686H439.87L456.739 87.123C456.786 87.1783 456.837 87.2292 456.888 87.2802C459.755 90.1407 463.637 91.7504 467.686 91.7576C469.919 91.7562 472.124 91.2661 474.146 90.3217C476.169 89.3774 477.96 88.0017 479.395 86.2912C480.829 84.5808 481.871 82.5771 482.449 80.4208C483.026 78.2646 483.125 76.008 482.737 73.8097H482.741ZM423.696 38.3897L417.654 30.8376L405.811 37.7604C405.811 38.6617 408.851 48.577 408.214 49.2143C407.577 49.8517 411.612 55.8853 411.738 55.0043C410.837 55.0043 415.648 52.7466 415.011 52.1093C414.373 51.472 411.612 51.8778 411.612 50.9765V47.5781L403.809 36.8793C402.907 36.8793 403.179 47.4522 405.811 46.5827C405.174 45.9454 407.962 46.2138 407.962 45.3124C407.962 44.4111 405.174 42.4139 405.811 41.7766C406.448 41.1392 407.313 40.7812 408.214 40.7812H411.612V37.3828C411.612 36.4814 411.97 35.617 412.608 34.9797C413.245 34.3424 414.109 33.9843 415.011 33.9843C415.912 33.9843 416.777 34.3424 417.414 34.9797C418.051 35.617 418.409 36.4814 418.409 37.3828L411.612 47.5781L421.808 40.7812C422.709 40.7812 423.573 41.1392 424.211 41.7766C424.848 42.4139 425.206 43.2783 425.206 44.1796C425.206 45.0809 427.983 39.2628 427.346 39.9001C426.709 40.5375 424.597 38.3897 423.696 38.3897ZM438.8 44.1796C438.8 43.2783 439.158 42.4139 439.795 41.7766C440.432 41.1392 441.297 40.7812 442.198 40.7812H452.394C453.295 40.7812 454.159 41.1392 454.797 41.7766C455.434 42.4139 455.792 43.2783 455.792 44.1796C454.533 44.6831 450.254 45.4383 454.797 46.5827C454.159 47.22 459.211 37.131 458.309 37.131L445.597 33.9843C444.695 33.9843 440.432 37.7684 439.795 37.131C439.158 36.4937 438.8 45.0809 438.8 44.1796ZM472.407 78.7933C471.77 79.7098 475.087 70.2634 474.146 70.8636C473.206 71.4637 473.128 72.3089 472.029 72.4999C470.699 72.7325 471.934 71.891 470.644 71.4929C469.354 71.0949 468.654 73.1896 467.686 72.2481L462.211 73.7502L466.617 70.1084C470.955 70.109 458.042 65.4213 461.834 63.3115C459.19 58.6544 459.925 77.4376 462.211 73.7502L468.63 77.6605C468.82 78.7544 470.89 79.3382 470.644 80.4208C470.399 81.5035 473.049 77.8881 472.407 78.7933Z" fill="white"/>
<rect x="420.447" y="34.0391" width="6.67058" height="22.0284" rx="3.33529" transform="rotate(45 420.447 34.0391)" fill="black"/>
<rect x="452.669" y="34.0391" width="6.67058" height="22.0284" rx="3.33529" transform="rotate(45 452.669 34.0391)" fill="black"/>
<rect x="425.109" y="49.5608" width="6.67058" height="22.0284" rx="3.33529" transform="rotate(135 425.109 49.5608)" fill="black"/>
<rect x="457.331" y="49.5608" width="6.67058" height="22.0284" rx="3.33529" transform="rotate(135 457.331 49.5608)" fill="black"/>
<g clip-path="url(#clip16_104_307)">
<path d="M993.973 298.397C993.984 298.388 993.993 298.378 994.002 298.368L1007.89 277.757C1007.91 277.744 1007.92 277.732 1007.93 277.72C1010.25 274.369 1011.31 270.312 1010.95 266.257C1010.58 262.201 1008.8 258.402 1005.92 255.52L987.865 237.46C984.979 234.571 981.166 232.793 977.098 232.438C973.029 232.082 968.966 233.173 965.622 235.517L945.044 249.41C945.033 249.418 945.024 249.428 945.015 249.438C943.198 250.711 941.834 252.53 941.121 254.631C940.408 256.732 940.383 259.006 941.05 261.122C941.717 263.238 943.041 265.087 944.83 266.399C946.619 267.711 948.779 268.419 950.998 268.42L951.146 268.416L968.523 267.309L976.106 274.893L975.004 292.274C975 292.323 974.999 292.373 974.999 292.422C975.002 295.185 976.099 297.835 978.049 299.792C979.127 300.869 980.427 301.696 981.859 302.216C983.291 302.737 984.819 302.937 986.336 302.804C987.853 302.671 989.323 302.207 990.642 301.445C991.961 300.684 993.097 299.642 993.971 298.395L993.973 298.397ZM982.574 252.817L983.303 246.258L974.248 243.884C973.813 244.319 970.496 250.57 969.881 250.57C969.266 250.57 968.302 255.429 968.788 255.064C968.353 254.629 971.764 255.861 971.764 255.246C971.764 254.631 970.236 253.495 970.671 253.06L972.31 251.42L973.707 242.493C973.272 242.058 968.302 247.291 969.991 248.141C969.991 247.526 971.207 249.001 971.642 248.566C972.077 248.131 971.695 245.822 972.31 245.822C972.925 245.822 973.515 246.066 973.95 246.501L975.59 248.141L977.23 246.501C977.664 246.066 978.254 245.822 978.869 245.822C979.484 245.822 980.074 246.066 980.509 246.501C980.944 246.936 981.188 247.526 981.188 248.141C981.188 248.756 980.944 249.346 980.509 249.781L972.31 251.42L980.509 253.06C980.944 253.495 981.188 254.085 981.188 254.7C981.188 255.315 980.944 255.905 980.509 256.34C980.074 256.775 984.221 255.307 983.606 255.307C982.991 255.307 983.009 253.252 982.574 252.817ZM987.068 262.899C987.503 262.464 988.093 262.219 988.708 262.219C989.323 262.219 989.912 262.464 990.347 262.899L995.267 267.818C995.701 268.253 995.946 268.842 995.946 269.457C995.946 270.072 995.701 270.662 995.267 271.097C994.416 270.733 991.987 269.032 993.627 271.776C993.012 271.776 1000.32 269.346 999.882 268.911L995.267 261.259C994.832 260.824 990.949 260.593 990.949 259.978C990.949 259.363 986.633 263.333 987.068 262.899ZM986.582 295.815C985.833 295.95 991.991 292.992 991.248 292.828C990.504 292.664 990.059 293.034 989.436 292.596C988.683 292.066 989.685 292.257 989.254 291.442C988.824 290.627 987.475 291.3 987.463 290.379L984.096 288.462L987.979 288.831C990.072 290.924 986.103 282.432 988.951 283.243C989.922 279.721 981.214 289.138 984.096 288.462L985.307 293.446C984.87 294.065 985.587 295.346 984.947 295.75C984.306 296.153 987.329 295.688 986.582 295.815Z" fill="white"/>
<rect x="983.105" y="249.151" width="4.55169" height="15.0312" rx="2.27584" transform="rotate(90 983.105 249.151)" fill="black"/>
<rect x="998.652" y="264.698" width="4.55169" height="15.0312" rx="2.27584" transform="rotate(90 998.652 264.698)" fill="black"/>
<rect x="977.866" y="258.889" width="4.55169" height="15.0312" rx="2.27584" transform="rotate(-180 977.866 258.889)" fill="black"/>
<rect x="993.413" y="274.436" width="4.55169" height="15.0312" rx="2.27584" transform="rotate(-180 993.413 274.436)" fill="black"/>
</g>
<g clip-path="url(#clip17_104_307)">
<path d="M1028.81 440.379C1028.8 440.356 1028.79 440.335 1028.78 440.314L998.514 405.524C998.497 405.496 998.481 405.468 998.465 405.44C993.571 399.685 986.815 395.827 979.372 394.537C971.928 393.246 964.268 394.605 957.722 398.377L916.691 422.067C910.129 425.852 905.111 431.83 902.521 438.949C899.931 446.068 899.934 453.873 902.53 460.99L917.543 504.535C917.553 504.558 917.566 504.579 917.581 504.6C918.989 508.467 921.594 511.785 925.016 514.071C928.439 516.358 932.501 517.494 936.613 517.315C940.725 517.136 944.672 515.651 947.883 513.075C951.093 510.5 953.4 506.968 954.466 502.993L954.53 502.727L960.89 471.058L978.12 461.11L1008.74 471.431C1008.82 471.462 1008.91 471.486 1009 471.509C1013.95 472.831 1019.23 472.138 1023.67 469.583C1026.12 468.169 1028.22 466.236 1029.84 463.92C1031.46 461.605 1032.55 458.963 1033.04 456.18C1033.53 453.398 1033.41 450.541 1032.68 447.812C1031.95 445.083 1030.63 442.547 1028.81 440.382L1028.81 440.379ZM941.668 438.922L930.266 434.467L921.664 449.551C922.235 450.539 931.843 459.484 931.548 460.586C931.252 461.688 939.495 465.748 939.076 464.703C938.088 465.273 941.933 459.753 940.831 459.458C939.729 459.163 936.959 461.355 936.388 460.367L934.238 456.642L918.911 449.853C917.923 450.423 924.913 461.841 927.248 459.222C926.146 458.927 929.373 457.456 928.802 456.468C928.232 455.48 923.911 455.056 924.206 453.954C924.501 452.852 925.222 451.912 926.21 451.342L929.936 449.191L927.785 445.465C927.214 444.477 927.06 443.303 927.355 442.201C927.65 441.099 928.371 440.159 929.359 439.589C930.348 439.019 931.522 438.864 932.624 439.159C933.726 439.455 934.665 440.176 935.236 441.164L934.238 456.642L941.112 442.738C942.1 442.168 943.274 442.013 944.376 442.308C945.479 442.604 946.418 443.325 946.989 444.313C947.559 445.301 946.921 437.165 946.626 438.267C946.33 439.369 942.656 438.351 941.668 438.922ZM961.89 435.709C961.32 434.721 961.165 433.547 961.461 432.445C961.756 431.343 962.477 430.403 963.465 429.833L974.641 423.38C975.629 422.81 976.804 422.655 977.906 422.95C979.008 423.246 979.947 423.967 980.518 424.955C979.457 426.303 975.243 429.84 980.948 428.219C980.652 429.321 979.804 415.064 978.816 415.634L962.889 420.231C961.901 420.801 959.622 427.648 958.52 427.352C957.418 427.057 962.461 436.697 961.89 435.709ZM1020.64 452.384C1020.52 453.791 1018.18 441.337 1017.53 442.59C1016.88 443.843 1017.33 444.818 1016.24 445.724C1014.93 446.82 1015.75 445.116 1014.09 445.496C1012.42 445.876 1012.98 448.616 1011.32 448.196L1006.27 453.308L1008.79 446.528C1013.55 443.782 996.429 446.816 999.25 442.104C993.404 438.671 1006.1 458.797 1006.27 453.308L1015.78 453.532C1016.68 454.611 1019.32 453.941 1019.74 455.283C1020.15 456.625 1020.77 450.985 1020.64 452.384Z" fill="white"/>
<rect x="935.353" y="436.208" width="8.44376" height="27.884" rx="4.22188" transform="rotate(15 935.353 436.208)" fill="black"/>
<rect x="970.676" y="415.815" width="8.44376" height="27.884" rx="4.22188" transform="rotate(15 970.676 415.815)" fill="black"/>
<rect x="950.288" y="450.273" width="8.44376" height="27.884" rx="4.22188" transform="rotate(105 950.288 450.273)" fill="black"/>
<rect x="985.611" y="429.879" width="8.44376" height="27.884" rx="4.22188" transform="rotate(105 985.611 429.879)" fill="black"/>
</g>
<defs>
<clipPath id="clip0_104_307">
<rect width="43.853" height="43.853" fill="white" transform="translate(794.321 234.578) rotate(-15)"/>
</clipPath>
<clipPath id="clip1_104_307">
<rect width="43.853" height="43.853" fill="white" transform="translate(156.26 277.364) rotate(-15)"/>
</clipPath>
<clipPath id="clip2_104_307">
<rect width="43.853" height="43.853" fill="white" transform="translate(914.84 347.864) rotate(30)"/>
</clipPath>
<clipPath id="clip3_104_307">
<rect width="137.658" height="137.658" fill="white" transform="translate(764.557 104.173) rotate(-30)"/>
</clipPath>
<clipPath id="clip4_104_307">
<rect width="137.658" height="137.658" fill="white" transform="translate(194.071 63.248) rotate(45)"/>
</clipPath>
<clipPath id="clip5_104_307">
<rect width="137.658" height="137.658" fill="white" transform="translate(97.3386 295.778) rotate(45)"/>
</clipPath>
<clipPath id="clip6_104_307">
<rect width="74.2057" height="74.2057" fill="white" transform="translate(459.479 115.938) rotate(-15)"/>
</clipPath>
<clipPath id="clip7_104_307">
<rect width="43.853" height="43.853" fill="white" transform="translate(284.616 182.492) rotate(-15)"/>
</clipPath>
<clipPath id="clip8_104_307">
<rect width="43.853" height="43.853" fill="white" transform="translate(394.37 178.771) rotate(-15)"/>
</clipPath>
<clipPath id="clip9_104_307">
<rect width="72.6969" height="72.6969" fill="white" transform="translate(241.831 78.343) rotate(-15)"/>
</clipPath>
<clipPath id="clip10_104_307">
<rect width="20.2806" height="20.2806" fill="white" transform="translate(505.653 189.744) rotate(15)"/>
</clipPath>
<clipPath id="clip11_104_307">
<rect width="20.2806" height="20.2806" fill="white" transform="translate(779.108 191.604) rotate(15)"/>
</clipPath>
<clipPath id="clip12_104_307">
<rect width="74.2057" height="74.2057" fill="white" transform="translate(677.73 117.195) rotate(15)"/>
</clipPath>
<clipPath id="clip13_104_307">
<rect width="74.2057" height="74.2057" fill="white" transform="translate(842.687 285.22) rotate(-15)"/>
</clipPath>
<clipPath id="clip14_104_307">
<rect width="74.2057" height="74.2057" fill="white" transform="translate(70.689 225.692) rotate(-15)"/>
</clipPath>
<clipPath id="clip15_104_307">
<rect width="108.75" height="108.75" fill="white" transform="translate(537.608 30.0068) rotate(-15)"/>
</clipPath>
<clipPath id="clip16_104_307">
<rect width="74.2057" height="74.2057" fill="white" transform="translate(978.869 212.067) rotate(45)"/>
</clipPath>
<clipPath id="clip17_104_307">
<rect width="137.658" height="137.658" fill="white" transform="translate(866.87 425.994) rotate(-30)"/>
</clipPath>
</defs>
</svg>
